<svg width="36" height="36" viewBox="0 0 36 36" fill="none" xmlns="http://www.w3.org/2000/svg">
<g id="contact_page">
<mask id="mask0_67_1557" style="mask-type:alpha" maskUnits="userSpaceOnUse" x="0" y="0" width="36" height="36">
<rect id="Bounding box" width="36" height="36" fill="#D9D9D9"/>
</mask>
<g mask="url(#mask0_67_1557)">
<path id="contact_page_2" d="M18 21C18.825 21 19.5313 20.7063 20.1188 20.1188C20.7063 19.5312 21 18.825 21 18C21 17.175 20.7063 16.4688 20.1188 15.8813C19.5313 15.2938 18.825 15 18 15C17.175 15 16.4688 15.2938 15.8813 15.8813C15.2937 16.4688 15 17.175 15 18C15 18.825 15.2937 19.5312 15.8813 20.1188C16.4688 20.7063 17.175 21 18 21ZM12 27H24V26.1375C24 25.5375 23.8375 24.9875 23.5125 24.4875C23.1875 23.9875 22.7375 23.6125 22.1625 23.3625C21.5125 23.0875 20.8438 22.875 20.1562 22.725C19.4688 22.575 18.75 22.5 18 22.5C17.25 22.5 16.5312 22.575 15.8438 22.725C15.1562 22.875 14.4875 23.0875 13.8375 23.3625C13.2625 23.6125 12.8125 23.9875 12.4875 24.4875C12.1625 24.9875 12 25.5375 12 26.1375V27ZM27 33H9C8.175 33 7.46875 32.7063 6.88125 32.1188C6.29375 31.5312 6 30.825 6 30V6C6 5.175 6.29375 4.46875 6.88125 3.88125C7.46875 3.29375 8.175 3 9 3H21L30 12V30C30 30.825 29.7063 31.5312 29.1188 32.1188C28.5312 32.7063 27.825 33 27 33ZM27 30V13.275L19.725 6H9V30H27Z" fill="#2C2C2C"/>
</g>
</g>
</svg>
